<?xml version="1.0" encoding="utf-8"?>
<!-- Generator: Adobe Illustrator 25.3.1, SVG Export Plug-In . SVG Version: 6.00 Build 0)  -->
<svg version="1.1" id="Слой_1" xmlns="http://www.w3.org/2000/svg" xmlns:xlink="http://www.w3.org/1999/xlink" x="0px" y="0px"
	 viewBox="0 0 128 128" style="enable-background:new 0 0 128 128;" xml:space="preserve">
<style type="text/css">
	.st0{fill:#F15A24;}
</style>
<g>
	<path class="st0" d="M75.48,9.58c7,0,13.69,1.41,19.78,3.94c6.33,2.65,12.03,6.51,16.79,11.32c4.77,4.81,8.61,10.54,11.23,16.92
		c2.53,6.14,3.92,12.87,3.92,19.92s-1.39,13.78-3.92,19.92c-2.62,6.38-6.46,12.11-11.23,16.92c-4.77,4.81-10.46,8.68-16.79,11.32
		c-6.1,2.54-12.77,3.94-19.78,3.94c-7,0-13.69-1.41-19.78-3.94c-6.33-2.65-12.03-6.51-16.79-11.32
		c-4.77-4.81-8.62-10.55-11.24-16.92c-2.53-6.14-3.92-12.87-3.92-19.92s1.39-13.78,3.92-19.92c2.62-6.38,6.46-12.11,11.23-16.92
		s10.46-8.68,16.79-11.32C61.79,10.98,68.48,9.58,75.48,9.58L75.48,9.58z M54.89,17.51c-1.36,0.64-2.68,1.35-3.97,2.11
		c-1.25,0.75-2.48,1.55-3.65,2.4l3.6,1.47c0.42,0.17,0.74,0.5,0.9,0.89c0.16,0.39,0.18,0.84,0.01,1.26c-0.17,0.42-0.5,0.74-0.89,0.9
		c-0.39,0.16-0.84,0.18-1.26,0.01l-5.34-2.18c-0.52,0.44-1.03,0.89-1.52,1.35c-0.51,0.48-1.01,0.96-1.51,1.46
		c-0.58,0.58-1.13,1.17-1.67,1.77c-0.5,0.56-0.99,1.13-1.47,1.71l3.65,0.47c0.45,0.06,0.84,0.3,1.1,0.63
		c0.26,0.33,0.39,0.77,0.33,1.22c-0.06,0.45-0.3,0.84-0.63,1.1c-0.33,0.26-0.77,0.39-1.22,0.33l-5.54-0.7
		c-0.85,1.21-1.64,2.48-2.38,3.76c-0.71,1.25-1.37,2.54-1.97,3.85l3.48-0.48c0.45-0.06,0.89,0.07,1.22,0.32
		c0.34,0.25,0.58,0.64,0.64,1.09l0,0c0.06,0.45-0.07,0.88-0.32,1.22c-0.25,0.34-0.64,0.58-1.09,0.64l-5.35,0.74
		c-0.51,1.38-0.95,2.79-1.33,4.23c-0.36,1.38-0.67,2.78-0.92,4.21l3.1-1.3c0.42-0.18,0.87-0.17,1.27-0.01
		c0.39,0.16,0.73,0.48,0.9,0.89c0.18,0.42,0.17,0.87,0.01,1.27c-0.16,0.39-0.48,0.73-0.89,0.9l-4.88,2.05
		c-0.07,0.75-0.12,1.49-0.15,2.25c-0.03,0.76-0.05,1.54-0.05,2.32c0,0.74,0.02,1.47,0.05,2.19c0.03,0.66,0.07,1.32,0.13,1.98
		l2.6-2.01c0.36-0.28,0.81-0.38,1.22-0.33c0.42,0.05,0.82,0.27,1.1,0.63c0.28,0.36,0.38,0.81,0.33,1.22
		c-0.05,0.42-0.27,0.82-0.63,1.1l-4.16,3.22c0.22,1.48,0.53,2.94,0.9,4.36c0.36,1.4,0.79,2.78,1.26,4.13l2-2.63
		c0.27-0.36,0.67-0.58,1.09-0.64c0.41-0.06,0.86,0.04,1.22,0.32l0,0c0.36,0.27,0.58,0.67,0.64,1.09c0.06,0.41-0.04,0.86-0.32,1.22
		l-3.2,4.21c0.61,1.37,1.28,2.7,2.01,3.99c0.71,1.26,1.48,2.49,2.29,3.68l1.27-3.11c0.17-0.42,0.5-0.74,0.89-0.9
		c0.39-0.16,0.84-0.18,1.26-0.01c0.42,0.17,0.74,0.5,0.9,0.89c0.16,0.39,0.18,0.84,0.01,1.26l-2.03,4.96
		c0.52,0.64,1.04,1.25,1.59,1.86c0.56,0.62,1.13,1.23,1.72,1.82c0.48,0.49,0.97,0.97,1.48,1.42c0.45,0.41,0.92,0.83,1.38,1.23
		l0.44-3.45c0.06-0.45,0.3-0.84,0.63-1.1c0.33-0.26,0.77-0.39,1.22-0.33c0.45,0.06,0.84,0.3,1.1,0.63c0.26,0.33,0.39,0.77,0.33,1.22
		l-0.69,5.43c1.21,0.88,2.47,1.71,3.76,2.49c1.25,0.75,2.54,1.43,3.85,2.06l-0.49-3.58c-0.06-0.45,0.07-0.89,0.32-1.22
		c0.25-0.34,0.64-0.58,1.09-0.64l0,0c0.45-0.06,0.88,0.07,1.22,0.32c0.34,0.25,0.58,0.64,0.64,1.09l0.76,5.55
		c1.4,0.53,2.82,1.01,4.28,1.41c1.4,0.39,2.82,0.71,4.27,0.97l-1.43-3.43c-0.18-0.42-0.16-0.87,0-1.26c0.16-0.39,0.48-0.73,0.89-0.9
		l0,0c0.42-0.18,0.87-0.16,1.26,0c0.39,0.16,0.73,0.48,0.9,0.89l2.2,5.24c0.78,0.08,1.57,0.13,2.37,0.18
		c0.81,0.04,1.62,0.06,2.44,0.06c0.72,0,1.43-0.02,2.15-0.04c0.64-0.03,1.29-0.07,1.94-0.13l-2.31-2.99
		c-0.28-0.36-0.38-0.81-0.33-1.22s0.26-0.81,0.62-1.09l0.02-0.02c0.36-0.27,0.8-0.38,1.21-0.32c0.41,0.05,0.81,0.26,1.09,0.62
		l3.52,4.54c1.49-0.25,2.97-0.57,4.42-0.95c1.42-0.37,2.82-0.81,4.18-1.32l-3.03-2.31c-0.36-0.28-0.58-0.67-0.64-1.09
		c-0.06-0.41,0.04-0.86,0.32-1.22l0,0c0.27-0.36,0.67-0.58,1.09-0.64c0.41-0.06,0.86,0.04,1.22,0.32l4.58,3.48
		c1.37-0.63,2.71-1.32,4-2.07c1.26-0.73,2.5-1.52,3.69-2.36l-3.5-1.43c-0.42-0.17-0.74-0.5-0.9-0.89c-0.16-0.39-0.18-0.84-0.01-1.26
		l0,0c0.17-0.42,0.5-0.73,0.89-0.9c0.39-0.16,0.84-0.18,1.26-0.01l5.29,2.16c0.59-0.49,1.18-1,1.75-1.52
		c0.58-0.53,1.15-1.08,1.71-1.65c0.52-0.52,1.02-1.05,1.51-1.59c0.44-0.49,0.88-0.99,1.32-1.51l-3.71-0.48
		c-0.45-0.06-0.84-0.3-1.1-0.63c-0.26-0.33-0.39-0.77-0.33-1.22c0.06-0.45,0.3-0.84,0.63-1.1c0.33-0.26,0.77-0.39,1.22-0.33
		l5.64,0.71c0.86-1.22,1.68-2.49,2.43-3.79c0.73-1.25,1.4-2.55,2.02-3.88l-3.7,0.5c-0.45,0.06-0.89-0.07-1.22-0.32
		s-0.58-0.64-0.64-1.09l0,0c-0.06-0.45,0.07-0.88,0.32-1.22c0.25-0.34,0.64-0.58,1.09-0.64l5.62-0.76c0.52-1.4,0.98-2.82,1.37-4.28
		c0.38-1.4,0.69-2.82,0.95-4.27l-3.43,1.44c-0.42,0.18-0.87,0.17-1.27,0.01c-0.39-0.16-0.73-0.48-0.9-0.89
		c-0.18-0.42-0.17-0.87-0.01-1.27c0.16-0.39,0.48-0.73,0.89-0.9l5.24-2.2c0.08-0.78,0.13-1.57,0.17-2.37
		c0.04-0.81,0.06-1.62,0.06-2.43c0-0.72-0.02-1.43-0.04-2.15c-0.03-0.64-0.07-1.3-0.12-1.94l-2.99,2.31
		c-0.36,0.28-0.81,0.38-1.22,0.33c-0.41-0.05-0.81-0.26-1.09-0.62l-0.01-0.02c-0.27-0.36-0.38-0.8-0.32-1.21
		c0.05-0.41,0.26-0.81,0.62-1.09l4.55-3.53c-0.25-1.5-0.55-2.99-0.93-4.44c-0.37-1.42-0.81-2.83-1.3-4.21l-2.35,3.1
		c-0.27,0.36-0.67,0.58-1.09,0.64c-0.41,0.06-0.86-0.04-1.22-0.32l0,0c-0.36-0.28-0.58-0.67-0.64-1.09
		c-0.06-0.41,0.04-0.86,0.32-1.22l3.55-4.66c-0.63-1.39-1.32-2.75-2.06-4.06c-0.73-1.29-1.52-2.54-2.36-3.74l-1.51,3.7
		c-0.17,0.42-0.5,0.74-0.89,0.9c-0.39,0.16-0.84,0.18-1.25,0.01h-0.01c-0.42-0.17-0.73-0.5-0.9-0.89c-0.16-0.39-0.18-0.84-0.01-1.25
		l2.26-5.53c-0.49-0.6-0.99-1.19-1.51-1.76c-0.53-0.59-1.08-1.17-1.64-1.74c-0.53-0.53-1.07-1.05-1.62-1.55
		c-0.5-0.46-1.02-0.92-1.53-1.36l-0.52,4.08c-0.06,0.45-0.3,0.84-0.63,1.1c-0.33,0.25-0.76,0.39-1.21,0.33h-0.02
		c-0.45-0.06-0.83-0.3-1.09-0.63c-0.25-0.33-0.39-0.76-0.33-1.21l0.76-5.94l0.02-0.1c-1.24-0.89-2.52-1.72-3.84-2.49
		c-1.28-0.75-2.59-1.43-3.93-2.06l0.57,4.18c0.06,0.45-0.07,0.89-0.32,1.22c-0.25,0.34-0.64,0.58-1.09,0.64l0,0
		c-0.45,0.06-0.88-0.07-1.22-0.32c-0.34-0.25-0.58-0.64-0.64-1.09C92.85,20,92.5,18,92.27,16.04c-0.01-0.04-0.01-0.08-0.01-0.12
		v-0.05c-1.42-0.53-2.87-0.98-4.35-1.38c-1.48-0.36-2.92-0.67-4.39-0.92l1.64,3.9c0.18,0.42,0.17,0.87,0.01,1.27
		c-0.16,0.39-0.48,0.73-0.89,0.9c-0.42,0.18-0.87,0.17-1.27,0.01c-0.39-0.16-0.73-0.48-0.9-0.89l-2.31-5.52
		c-0.02-0.03-0.03-0.08-0.04-0.11l-0.03-0.04c-0.69-0.06-1.38-0.11-2.09-0.13c-0.71-0.03-1.43-0.05-2.16-0.05
		c-0.83,0-1.65,0.02-2.46,0.06c-0.76,0.03-1.51,0.09-2.25,0.17l2.56,3.31c0.28,0.36,0.38,0.81,0.33,1.22
		c-0.05,0.42-0.27,0.82-0.63,1.1c-0.36,0.28-0.81,0.38-1.22,0.33c-0.42-0.05-0.82-0.27-1.1-0.63l-3.66-4.72l-0.06-0.08
		c-1.5,0.26-2.97,0.6-4.42,1c-1.42,0.4-2.82,0.86-4.18,1.37l3.24,2.46c0.36,0.28,0.58,0.67,0.64,1.09c0.06,0.41-0.04,0.86-0.32,1.22
		c-0.28,0.36-0.67,0.58-1.09,0.64c-0.41,0.06-0.86-0.04-1.22-0.32L54.89,17.51L54.89,17.51z M75.48,35.47
		c3.55,0,6.94,0.7,10.02,1.98c3.2,1.33,6.1,3.27,8.51,5.69c2.42,2.42,4.37,5.3,5.69,8.51c1.28,3.09,1.98,6.48,1.98,10.02
		c0,3.55-0.7,6.94-1.98,10.02c-1.32,3.2-3.27,6.1-5.69,8.51c-2.33,2.33-5.09,4.22-8.16,5.55c-2.95,1.27-6.18,2.02-9.58,2.12
		c-0.12,0.06-0.24,0.11-0.37,0.15c-0.13,0.03-0.28,0.05-0.42,0.05c-0.15,0-0.29-0.02-0.42-0.05c-0.13-0.03-0.25-0.08-0.37-0.15
		c-3.39-0.1-6.63-0.85-9.58-2.12c-3.07-1.32-5.83-3.22-8.16-5.55c-0.67-0.67-1.31-1.38-1.91-2.13c-0.58-0.73-1.14-1.5-1.65-2.29
		c-0.15-0.07-0.27-0.16-0.39-0.26L53,75.52c-0.12-0.11-0.22-0.24-0.31-0.38s-0.15-0.3-0.18-0.45c-0.03-0.15-0.05-0.31-0.04-0.45
		c-1.04-1.89-1.84-3.92-2.38-6.06c-0.53-2.08-0.81-4.26-0.81-6.5c0-2.19,0.27-4.31,0.77-6.34c0.52-2.09,1.29-4.08,2.27-5.94
		c0.02-0.08,0.04-0.16,0.07-0.24c0.03-0.08,0.07-0.16,0.11-0.24c0.04-0.07,0.08-0.13,0.13-0.2c0.04-0.06,0.09-0.11,0.15-0.16
		c0.58-0.99,1.21-1.94,1.9-2.84c0.7-0.92,1.46-1.77,2.26-2.59c2.42-2.42,5.3-4.37,8.51-5.69C68.54,36.17,71.94,35.47,75.48,35.47
		L75.48,35.47z M91.67,45.49c-1.98-1.98-4.32-3.6-6.9-4.74c-2.47-1.09-5.17-1.77-8.01-1.93v15.76c0.75,0.15,1.45,0.4,2.09,0.75
		c0.67,0.35,1.27,0.8,1.81,1.32l13.7-7.91c-0.39-0.56-0.8-1.11-1.24-1.64C92.67,46.53,92.19,46,91.67,45.49L91.67,45.49z
		 M73.45,38.87c-2.69,0.24-5.25,0.94-7.59,2.03c-2.45,1.14-4.66,2.7-6.55,4.59c-0.58,0.58-1.13,1.19-1.64,1.82
		c-0.49,0.6-0.95,1.24-1.37,1.89l13.3,7.67l0.17-0.18c0.52-0.52,1.1-0.96,1.75-1.32c0.6-0.33,1.26-0.58,1.95-0.76L73.45,38.87
		L73.45,38.87L73.45,38.87z M54.68,52.1c-0.67,1.46-1.2,3-1.55,4.6c-0.36,1.6-0.54,3.27-0.54,4.97c0,1.83,0.21,3.61,0.62,5.32
		c0.41,1.72,1.01,3.37,1.78,4.91l12.83-7.4c-0.11-0.36-0.2-0.72-0.25-1.09c-0.06-0.4-0.09-0.8-0.09-1.2c0-0.44,0.03-0.87,0.11-1.3
		c0.07-0.41,0.17-0.8,0.3-1.18L54.68,52.1L54.68,52.1z M56.68,74.75c0.38,0.54,0.78,1.07,1.2,1.58c0.45,0.53,0.92,1.05,1.42,1.54
		c1.93,1.93,4.21,3.52,6.73,4.66c2.41,1.09,5.04,1.78,7.8,1.98V69.84c-0.76-0.15-1.49-0.39-2.15-0.74
		c-0.71-0.37-1.36-0.85-1.92-1.41c-0.06-0.06-0.12-0.12-0.18-0.19l-0.12-0.13L56.68,74.75L56.68,74.75z M77.14,84.51
		c2.76-0.2,5.39-0.89,7.8-1.98c2.52-1.14,4.79-2.73,6.72-4.66c0.52-0.52,1.01-1.06,1.48-1.62c0.44-0.53,0.86-1.09,1.25-1.66
		l-13.08-7.56c-0.08,0.1-0.16,0.2-0.25,0.3c-0.11,0.13-0.22,0.25-0.33,0.36l-0.01,0.01c-0.5,0.5-1.07,0.93-1.69,1.28
		c-0.58,0.33-1.22,0.58-1.89,0.76V84.51L77.14,84.51z M96.06,71.73c0.75-1.52,1.32-3.14,1.72-4.82c0.39-1.68,0.6-3.43,0.6-5.22
		c0-1.81-0.21-3.56-0.6-5.25c-0.4-1.7-0.98-3.32-1.74-4.85L82.51,59.4c0.16,0.42,0.29,0.86,0.38,1.32c0.09,0.48,0.13,0.97,0.13,1.47
		c0,0.33-0.02,0.66-0.06,0.98c-0.03,0.3-0.09,0.59-0.16,0.88L96.06,71.73L96.06,71.73z M75.48,26.98c4.7,0,9.18,0.93,13.27,2.63
		c4.25,1.75,8.07,4.33,11.27,7.54c3.2,3.2,5.78,7.02,7.54,11.27c1.7,4.09,2.63,8.57,2.63,13.27c0,4.7-0.93,9.18-2.63,13.27
		c-1.75,4.25-4.33,8.07-7.54,11.27c-3.2,3.2-7.02,5.78-11.27,7.54c-4.09,1.7-8.57,2.63-13.27,2.63c-4.7,0-9.18-0.93-13.27-2.63
		c-4.25-1.75-8.07-4.33-11.27-7.54c-3.2-3.2-5.78-7.02-7.54-11.27c-1.7-4.09-2.63-8.57-2.63-13.27c0-4.7,0.93-9.18,2.63-13.27
		c1.75-4.25,4.33-8.07,7.54-11.27c3.2-3.2,7.02-5.78,11.27-7.54C66.3,27.91,70.78,26.98,75.48,26.98L75.48,26.98z M97.59,39.57
		c-2.88-2.88-6.33-5.21-10.15-6.79c-3.68-1.53-7.72-2.37-11.96-2.37c-4.23,0-8.28,0.84-11.96,2.37c-3.83,1.59-7.27,3.91-10.15,6.79
		c-2.88,2.88-5.21,6.33-6.79,10.15c-1.53,3.68-2.37,7.72-2.37,11.96c0,4.23,0.84,8.28,2.37,11.96c1.59,3.83,3.91,7.27,6.79,10.15
		c2.88,2.88,6.33,5.21,10.15,6.79c3.68,1.53,7.72,2.37,11.96,2.37c4.23,0,8.28-0.84,11.96-2.37c3.83-1.59,7.27-3.91,10.15-6.79
		s5.21-6.33,6.79-10.15c1.53-3.68,2.37-7.72,2.37-11.96c0-4.23-0.84-8.28-2.37-11.96C102.8,45.9,100.47,42.45,97.59,39.57
		L97.59,39.57z M76.79,60.64c-0.2-0.2-0.44-0.36-0.71-0.48C75.82,60.06,75.53,60,75.23,60s-0.58,0.06-0.84,0.17
		c-0.27,0.11-0.51,0.27-0.71,0.48c-0.2,0.2-0.36,0.44-0.48,0.71c-0.11,0.25-0.17,0.54-0.17,0.84c0,0.3,0.06,0.58,0.17,0.84
		c0.11,0.27,0.27,0.51,0.48,0.71l0.01,0.01c0.2,0.2,0.44,0.36,0.7,0.47c0.25,0.11,0.54,0.17,0.84,0.17s0.58-0.06,0.84-0.17
		c0.27-0.11,0.51-0.27,0.71-0.48c0.2-0.2,0.36-0.44,0.48-0.71c0.11-0.25,0.17-0.54,0.17-0.84c0-0.3-0.06-0.58-0.17-0.84
		C77.15,61.08,76.99,60.85,76.79,60.64L76.79,60.64z"/>
</g>
<g>
	<path d="M127.32,62.65v54.28c0,0.59-0.47,1.07-1.06,1.07H2.08c-0.93,0-1.41-1.13-0.77-1.8L23.3,93.08c0.19-0.2,0.29-0.46,0.29-0.74
		V34.98c0-0.27-0.1-0.54-0.29-0.73L1.29,10.8C0.65,10.12,1.13,9,2.06,9h76.96c0.93,0,1.41,1.12,0.77,1.8L57.77,34.24
		c-0.19,0.2-0.29,0.46-0.29,0.73v60.4c0,0.59,0.47,1.07,1.06,1.07h38.84c0.32,0,0.62-0.15,0.83-0.4l27.22-34.06
		C126.06,61.2,127.32,61.65,127.32,62.65z"/>
</g>
</svg>
