<?xml version="1.0" encoding="utf-8"?>
<!-- Generator: Adobe Illustrator 25.3.1, SVG Export Plug-In . SVG Version: 6.00 Build 0)  -->
<svg version="1.1" id="Слой_1" xmlns="http://www.w3.org/2000/svg" xmlns:xlink="http://www.w3.org/1999/xlink" x="0px" y="0px"
	 viewBox="0 0 1366 768" style="enable-background:new 0 0 1366 768;" xml:space="preserve">
<style type="text/css">
	.st0{fill:#F15A24;}
</style>
<g>
	<path class="st0" d="M687.29,169.56c26.51,0,51.81,5.33,74.86,14.93c23.95,10.02,45.52,24.65,63.56,42.85s32.58,39.9,42.5,64.04
		c9.57,23.24,14.83,48.7,14.83,75.4s-5.26,52.16-14.83,75.4c-9.92,24.14-24.46,45.84-42.5,64.04
		c-18.04,18.2-39.61,32.84-63.56,42.85C739.07,558.7,713.8,564,687.29,564s-51.81-5.33-74.86-14.93
		c-23.95-10.02-45.52-24.65-63.56-42.85c-18.07-18.2-32.61-39.93-42.53-64.04c-9.57-23.24-14.83-48.7-14.83-75.4
		s5.26-52.16,14.83-75.4c9.92-24.14,24.46-45.84,42.5-64.04s39.61-32.84,63.56-42.85C635.48,174.89,660.78,169.56,687.29,169.56
		L687.29,169.56z M609.35,199.61c-5.14,2.44-10.14,5.1-15.02,7.99c-4.75,2.82-9.37,5.87-13.83,9.08l13.61,5.55
		c1.6,0.64,2.79,1.89,3.4,3.37c0.61,1.48,0.67,3.18,0.03,4.78c-0.64,1.6-1.89,2.79-3.37,3.4c-1.48,0.61-3.18,0.67-4.78,0.03
		l-20.22-8.25c-1.96,1.67-3.88,3.37-5.75,5.1c-1.93,1.8-3.82,3.63-5.71,5.52c-2.18,2.18-4.27,4.43-6.32,6.71
		c-1.89,2.12-3.76,4.27-5.55,6.48l13.83,1.77c1.7,0.22,3.18,1.12,4.17,2.38c1,1.25,1.48,2.92,1.25,4.62
		c-0.22,1.7-1.12,3.18-2.38,4.17s-2.92,1.48-4.62,1.25l-20.96-2.66c-3.21,4.59-6.2,9.37-8.99,14.25c-2.7,4.72-5.17,9.6-7.45,14.57
		l13.16-1.8c1.7-0.22,3.37,0.26,4.62,1.22c1.28,0.96,2.18,2.44,2.41,4.14l0,0c0.22,1.7-0.26,3.34-1.22,4.62
		c-0.96,1.28-2.44,2.18-4.14,2.41l-20.25,2.79c-1.93,5.23-3.6,10.56-5.04,16.02c-1.38,5.23-2.54,10.53-3.47,15.92l11.75-4.91
		c1.6-0.67,3.31-0.64,4.81-0.03c1.48,0.61,2.76,1.8,3.4,3.37c0.67,1.6,0.64,3.31,0.03,4.81c-0.61,1.48-1.8,2.76-3.37,3.4
		l-18.49,7.77c-0.26,2.82-0.45,5.65-0.58,8.51c-0.13,2.89-0.19,5.84-0.19,8.8c0,2.79,0.06,5.55,0.19,8.28
		c0.1,2.5,0.26,5.01,0.48,7.48l9.85-7.61c1.38-1.06,3.05-1.44,4.62-1.25c1.6,0.19,3.11,1.03,4.17,2.38
		c1.06,1.38,1.44,3.05,1.25,4.62c-0.19,1.6-1.03,3.11-2.38,4.17l-15.73,12.17c0.83,5.59,1.99,11.11,3.4,16.5
		c1.38,5.3,2.99,10.53,4.78,15.63l7.58-9.95c1.03-1.38,2.54-2.18,4.14-2.41c1.57-0.22,3.24,0.16,4.62,1.22l0,0
		c1.38,1.03,2.18,2.54,2.41,4.14c0.22,1.57-0.16,3.24-1.22,4.62l-12.1,15.92c2.31,5.17,4.85,10.21,7.61,15.12
		c2.7,4.78,5.59,9.44,8.67,13.93l4.81-11.78c0.64-1.6,1.89-2.79,3.37-3.4c1.48-0.61,3.18-0.67,4.78-0.03
		c1.6,0.64,2.79,1.89,3.4,3.37c0.61,1.48,0.67,3.18,0.03,4.78l-7.67,18.78c1.96,2.41,3.95,4.75,6,7.03c2.12,2.34,4.27,4.65,6.52,6.9
		c1.83,1.86,3.69,3.66,5.59,5.39c1.7,1.57,3.47,3.15,5.23,4.65l1.67-13.06c0.22-1.7,1.12-3.18,2.38-4.17c1.25-1,2.92-1.48,4.62-1.25
		c1.7,0.22,3.18,1.12,4.17,2.38c1,1.25,1.48,2.92,1.25,4.62l-2.6,20.54c4.59,3.34,9.34,6.48,14.25,9.41
		c4.72,2.82,9.6,5.42,14.57,7.8l-1.86-13.55c-0.22-1.7,0.26-3.37,1.22-4.62c0.96-1.28,2.44-2.18,4.14-2.41l0,0
		c1.7-0.22,3.34,0.26,4.62,1.22c1.28,0.96,2.18,2.44,2.41,4.14l2.86,20.99c5.3,2.02,10.69,3.82,16.21,5.33
		c5.3,1.48,10.69,2.7,16.15,3.69l-5.42-12.97c-0.67-1.6-0.61-3.31,0-4.78c0.61-1.48,1.8-2.76,3.37-3.4l0,0
		c1.6-0.67,3.31-0.61,4.78,0c1.48,0.61,2.76,1.8,3.4,3.37l8.31,19.84c2.95,0.29,5.94,0.51,8.96,0.67c3.05,0.16,6.13,0.22,9.24,0.22
		c2.73,0,5.42-0.06,8.12-0.16c2.44-0.1,4.88-0.26,7.35-0.48l-8.73-11.3c-1.06-1.38-1.44-3.05-1.25-4.62c0.19-1.57,1-3.08,2.34-4.14
		l0.06-0.06c1.35-1.03,3.02-1.44,4.59-1.22c1.57,0.19,3.08,1,4.14,2.34l13.32,17.17c5.65-0.93,11.23-2.15,16.72-3.6
		c5.36-1.41,10.66-3.08,15.83-4.98l-11.46-8.73c-1.38-1.06-2.21-2.54-2.41-4.14c-0.22-1.57,0.16-3.24,1.22-4.62l0,0
		c1.03-1.38,2.54-2.18,4.14-2.41c1.57-0.22,3.24,0.16,4.62,1.22l17.33,13.16c5.17-2.38,10.24-4.98,15.15-7.83
		c4.78-2.76,9.47-5.75,13.96-8.92l-13.26-5.42c-1.6-0.64-2.79-1.89-3.4-3.37c-0.61-1.48-0.67-3.18-0.03-4.78l0,0
		c0.64-1.6,1.89-2.76,3.37-3.4c1.48-0.61,3.18-0.67,4.78-0.03l20.03,8.19c2.25-1.86,4.46-3.79,6.61-5.75
		c2.21-2.02,4.37-4.08,6.48-6.23c1.96-1.96,3.85-3.98,5.71-6c1.67-1.86,3.34-3.76,4.98-5.71l-14.06-1.8
		c-1.7-0.22-3.18-1.12-4.17-2.38c-1-1.25-1.48-2.92-1.25-4.62c0.22-1.7,1.12-3.18,2.38-4.17c1.25-1,2.92-1.48,4.62-1.25l21.35,2.7
		c3.27-4.62,6.36-9.41,9.21-14.35c2.76-4.75,5.3-9.66,7.64-14.67l-14,1.89c-1.7,0.22-3.37-0.26-4.62-1.22
		c-1.25-0.96-2.18-2.44-2.41-4.14l0,0c-0.22-1.7,0.26-3.34,1.22-4.62c0.96-1.28,2.44-2.18,4.14-2.41l21.28-2.89
		c1.96-5.3,3.72-10.69,5.2-16.21c1.44-5.3,2.63-10.69,3.6-16.15l-13,5.46c-1.6,0.67-3.31,0.64-4.81,0.03
		c-1.48-0.61-2.76-1.8-3.4-3.37c-0.67-1.6-0.64-3.31-0.03-4.81c0.61-1.48,1.8-2.76,3.37-3.4l19.84-8.31
		c0.29-2.95,0.51-5.94,0.64-8.96c0.16-3.05,0.22-6.13,0.22-9.21c0-2.73-0.06-5.42-0.16-8.12c-0.1-2.44-0.26-4.91-0.45-7.35
		l-11.3,8.76c-1.38,1.06-3.05,1.44-4.62,1.25s-3.08-1-4.14-2.34l-0.03-0.06c-1.03-1.35-1.44-3.02-1.22-4.59
		c0.19-1.57,1-3.08,2.34-4.14l17.24-13.35c-0.93-5.68-2.09-11.3-3.53-16.82c-1.41-5.39-3.05-10.72-4.91-15.92l-8.89,11.72
		c-1.03,1.38-2.54,2.18-4.14,2.41c-1.57,0.22-3.24-0.16-4.62-1.22l0,0c-1.38-1.06-2.18-2.54-2.41-4.14
		c-0.22-1.57,0.16-3.24,1.22-4.62l13.42-17.65c-2.38-5.26-4.98-10.4-7.8-15.38c-2.76-4.88-5.75-9.6-8.92-14.16l-5.71,14
		c-0.64,1.6-1.89,2.79-3.37,3.4c-1.48,0.61-3.18,0.67-4.75,0.03h-0.03c-1.6-0.64-2.76-1.89-3.4-3.37c-0.61-1.48-0.67-3.18-0.03-4.75
		l8.57-20.93c-1.86-2.28-3.76-4.49-5.71-6.68c-2.02-2.25-4.08-4.43-6.2-6.58c-1.99-1.99-4.04-3.98-6.13-5.87
		c-1.89-1.73-3.85-3.47-5.81-5.14l-1.96,15.44c-0.22,1.7-1.12,3.18-2.38,4.17c-1.25,0.96-2.89,1.48-4.59,1.25h-0.06
		c-1.7-0.22-3.15-1.12-4.11-2.38c-0.96-1.25-1.48-2.89-1.25-4.59l2.86-22.47l0.06-0.39c-4.69-3.37-9.53-6.52-14.54-9.41
		c-4.85-2.82-9.82-5.42-14.89-7.8l2.15,15.83c0.22,1.7-0.26,3.37-1.22,4.62c-0.96,1.28-2.44,2.18-4.14,2.41l0,0
		c-1.7,0.22-3.34-0.26-4.62-1.22c-1.28-0.96-2.18-2.44-2.41-4.14c-0.87-7.45-2.21-14.99-3.05-22.44c-0.03-0.16-0.03-0.32-0.03-0.45
		v-0.19c-5.36-1.99-10.85-3.72-16.47-5.23c-5.59-1.35-11.07-2.54-16.63-3.5l6.2,14.77c0.67,1.6,0.64,3.31,0.03,4.81
		c-0.61,1.48-1.8,2.76-3.37,3.4c-1.6,0.67-3.31,0.64-4.81,0.03c-1.48-0.61-2.76-1.8-3.4-3.37l-8.76-20.9
		c-0.06-0.13-0.1-0.29-0.16-0.42l-0.1-0.16c-2.6-0.22-5.23-0.42-7.9-0.51c-2.7-0.13-5.42-0.19-8.19-0.19
		c-3.15,0-6.23,0.06-9.31,0.22c-2.86,0.13-5.71,0.35-8.51,0.64l9.69,12.52c1.06,1.38,1.44,3.05,1.25,4.62
		c-0.19,1.6-1.03,3.11-2.38,4.17c-1.38,1.06-3.05,1.44-4.62,1.25c-1.6-0.19-3.11-1.03-4.17-2.38l-13.87-17.88l-0.22-0.32
		c-5.68,1-11.23,2.28-16.72,3.79c-5.39,1.51-10.66,3.24-15.83,5.2l12.26,9.31c1.38,1.06,2.21,2.54,2.41,4.14
		c0.22,1.57-0.16,3.24-1.22,4.62c-1.06,1.38-2.54,2.21-4.14,2.41c-1.57,0.22-3.24-0.16-4.62-1.22L609.35,199.61L609.35,199.61z
		 M687.29,267.56c13.45,0,26.26,2.66,37.94,7.51c12.13,5.04,23.08,12.39,32.23,21.54c9.15,9.15,16.53,20.06,21.54,32.23
		c4.85,11.68,7.51,24.52,7.51,37.94c0,13.45-2.66,26.26-7.51,37.94c-5.01,12.13-12.39,23.08-21.54,32.23
		c-8.83,8.83-19.26,15.99-30.88,20.99c-11.17,4.81-23.4,7.64-36.27,8.02c-0.45,0.22-0.9,0.42-1.41,0.55
		c-0.51,0.13-1.06,0.19-1.6,0.19c-0.55,0-1.09-0.06-1.6-0.19c-0.48-0.13-0.96-0.32-1.41-0.55c-12.84-0.39-25.1-3.21-36.27-8.02
		c-11.62-5.01-22.08-12.17-30.88-20.99c-2.54-2.54-4.94-5.23-7.22-8.06c-2.21-2.76-4.3-5.68-6.23-8.67c-0.55-0.26-1.03-0.61-1.48-1
		l-0.03-0.03c-0.45-0.42-0.83-0.9-1.16-1.44s-0.55-1.12-0.67-1.7c-0.13-0.58-0.19-1.16-0.16-1.7c-3.92-7.16-6.97-14.83-9.02-22.92
		c-2.02-7.86-3.08-16.11-3.08-24.62c0-8.28,1.03-16.31,2.92-24.01c1.96-7.9,4.88-15.44,8.6-22.47c0.06-0.32,0.16-0.61,0.26-0.9
		c0.13-0.32,0.26-0.61,0.42-0.9c0.16-0.26,0.32-0.51,0.51-0.74c0.16-0.22,0.35-0.42,0.55-0.61c2.18-3.76,4.59-7.35,7.19-10.75
		c2.66-3.47,5.52-6.71,8.57-9.79c9.15-9.15,20.06-16.53,32.23-21.54C661.03,270.22,673.87,267.56,687.29,267.56L687.29,267.56z
		 M748.57,305.5c-7.48-7.48-16.34-13.61-26.13-17.94c-9.34-4.14-19.58-6.71-30.33-7.29v59.64c2.82,0.55,5.49,1.51,7.93,2.82
		c2.54,1.32,4.81,3.02,6.84,5.01l51.84-29.95c-1.48-2.12-3.02-4.21-4.69-6.2C752.36,309.45,750.53,307.43,748.57,305.5L748.57,305.5
		z M679.59,280.46c-10.18,0.9-19.87,3.56-28.73,7.67c-9.28,4.3-17.65,10.21-24.81,17.37c-2.18,2.18-4.27,4.49-6.2,6.9
		c-1.86,2.28-3.6,4.69-5.2,7.16l50.33,29.05l0.64-0.67c1.96-1.96,4.17-3.63,6.61-4.98c2.28-1.25,4.78-2.21,7.38-2.86v-59.64H679.59z
		 M608.55,330.54c-2.54,5.52-4.53,11.36-5.87,17.43c-1.35,6.07-2.05,12.36-2.05,18.81c0,6.93,0.8,13.67,2.34,20.13
		c1.54,6.52,3.82,12.74,6.74,18.59l48.57-28.02c-0.42-1.35-0.74-2.73-0.96-4.14c-0.22-1.51-0.35-3.02-0.35-4.56
		c0-1.67,0.13-3.31,0.42-4.91c0.26-1.54,0.64-3.02,1.12-4.46L608.55,330.54L608.55,330.54z M616.13,416.25
		c1.44,2.05,2.95,4.04,4.53,5.97c1.7,2.02,3.47,3.98,5.36,5.84c7.32,7.32,15.92,13.32,25.46,17.65c9.12,4.14,19.07,6.74,29.53,7.51
		v-55.56c-2.89-0.55-5.65-1.48-8.15-2.79c-2.7-1.41-5.14-3.21-7.25-5.33c-0.22-0.22-0.45-0.45-0.67-0.71l-0.45-0.48L616.13,416.25
		L616.13,416.25z M693.58,453.22c10.46-0.74,20.42-3.37,29.53-7.51c9.53-4.33,18.14-10.34,25.45-17.65
		c1.96-1.96,3.82-4.01,5.59-6.13c1.67-2.02,3.24-4.11,4.72-6.29l-49.5-28.6c-0.32,0.39-0.61,0.77-0.96,1.12
		c-0.42,0.48-0.83,0.93-1.25,1.35l-0.03,0.03c-1.89,1.89-4.04,3.53-6.39,4.85c-2.21,1.25-4.62,2.21-7.16,2.86V453.22L693.58,453.22z
		 M765.2,404.82c2.82-5.75,5.01-11.88,6.52-18.26c1.48-6.36,2.28-12.97,2.28-19.77c0-6.84-0.8-13.48-2.28-19.87
		c-1.51-6.42-3.72-12.58-6.58-18.36l-51.26,29.6c0.61,1.6,1.09,3.27,1.44,5.01c0.35,1.8,0.51,3.66,0.51,5.55
		c0,1.25-0.06,2.5-0.22,3.72c-0.13,1.12-0.35,2.25-0.61,3.34L765.2,404.82L765.2,404.82z M687.29,235.43
		c17.78,0,34.76,3.53,50.24,9.95c16.08,6.64,30.53,16.4,42.66,28.54c12.1,12.1,21.86,26.58,28.54,42.66
		c6.42,15.47,9.95,32.45,9.95,50.24c0,17.78-3.53,34.76-9.95,50.24c-6.64,16.08-16.4,30.53-28.54,42.66
		c-12.1,12.1-26.58,21.86-42.66,28.54c-15.47,6.42-32.45,9.95-50.24,9.95c-17.78,0-34.76-3.53-50.24-9.95
		c-16.08-6.64-30.53-16.4-42.66-28.54c-12.1-12.1-21.86-26.58-28.54-42.66c-6.42-15.47-9.95-32.45-9.95-50.24
		c0-17.78,3.53-34.76,9.95-50.24c6.64-16.08,16.4-30.53,28.54-42.66c12.1-12.1,26.58-21.86,42.66-28.54
		C652.53,238.96,669.51,235.43,687.29,235.43L687.29,235.43z M770.97,283.1c-10.91-10.91-23.95-19.71-38.42-25.71
		c-13.93-5.78-29.24-8.96-45.26-8.96s-31.33,3.18-45.26,8.96c-14.48,6-27.51,14.8-38.42,25.71s-19.71,23.95-25.71,38.42
		c-5.78,13.93-8.96,29.24-8.96,45.26s3.18,31.33,8.96,45.26c6,14.48,14.8,27.51,25.71,38.42c10.91,10.91,23.95,19.71,38.42,25.71
		c13.93,5.78,29.24,8.96,45.26,8.96s31.33-3.18,45.26-8.96c14.48-6,27.51-14.8,38.42-25.71s19.71-23.95,25.71-38.42
		c5.78-13.93,8.96-29.24,8.96-45.26s-3.18-31.33-8.96-45.26C790.68,307.04,781.89,294.01,770.97,283.1L770.97,283.1z M692.23,362.86
		c-0.77-0.77-1.67-1.38-2.7-1.8c-0.96-0.42-2.05-0.64-3.18-0.64s-2.21,0.22-3.18,0.64c-1.03,0.42-1.93,1.03-2.7,1.8
		c-0.77,0.77-1.38,1.67-1.8,2.7c-0.42,0.96-0.64,2.05-0.64,3.18c0,1.12,0.22,2.21,0.64,3.18c0.42,1.03,1.03,1.93,1.8,2.7l0.03,0.03
		c0.77,0.77,1.67,1.35,2.66,1.77c0.96,0.42,2.05,0.64,3.18,0.64s2.21-0.22,3.18-0.64c1.03-0.42,1.93-1.03,2.7-1.8
		c0.77-0.77,1.38-1.67,1.8-2.7c0.42-0.96,0.64-2.05,0.64-3.18c0-1.12-0.22-2.21-0.64-3.18C693.61,364.53,693,363.63,692.23,362.86
		L692.23,362.86z"/>
</g>
<g>
	<path d="M883.5,370.47v205.46c0,2.23-1.81,4.04-4.04,4.04H406.02c-3.56,0-5.38-4.26-2.92-6.83l83.83-87.51
		c0.72-0.75,1.12-1.75,1.12-2.79V265.71c0-1.03-0.4-2.03-1.1-2.78l-83.94-88.74c-2.44-2.57-0.61-6.81,2.93-6.81h293.42
		c3.54,0,5.37,4.24,2.93,6.81l-83.94,88.74c-0.71,0.75-1.1,1.74-1.1,2.78v228.61c0,2.23,1.81,4.04,4.04,4.04h148.1
		c1.22,0,2.38-0.55,3.15-1.51l103.78-128.91C878.7,364.97,883.5,366.66,883.5,370.47z"/>
</g>
</svg>
